<svg xmlns="http://www.w3.org/2000/svg" width="200" height="200" xmlns:v="https://vecta.io/nano"><circle cx="100" cy="100" r="95" fill="#0f172a" stroke="#1e293b" stroke-width="2"/><g fill="none"><path d="M50 70q-15 15-15 30 0 15 15 30m30-60q15 15 15 30 0 15-15 30M50 70q15-5 30 0m-30 60q15 5 30 0" stroke="#22d3ee" stroke-width="6" stroke-linecap="round"/><path d="M140 70v45q0 15-15 15-10 0-10-10" stroke="#10b981" stroke-width="6" stroke-linecap="round"/></g><circle cx="140" cy="60" r="4" fill="#10b981"/><g fill="#64748b"><circle cx="40" cy="50" r="2"/><circle cx="55" cy="60" r="2"/><circle cx="25" cy="60" r="2"/></g><g stroke="#64748b"><path opacity=".5" d="M40 50l15 10"/><path opacity=".5" d="M40 50L25 60"/></g><g fill="#64748b"><circle cx="160" cy="150" r="2"/><circle cx="170" cy="140" r="2"/><circle cx="150" cy="140" r="2"/></g><g stroke="#64748b"><path opacity=".5" d="M160 150l10-10"/><path opacity=".5" d="M160 150l-10-10"/></g><text x="100" y="160" font-family="Arial, sans-serif" font-size="12" text-anchor="middle" fill="#64748b">ONLINE JUDGE</text></svg>